<svg width="48px" height="48px" viewBox="0 0 48 48" version="1.1" xmlns="http://www.w3.org/2000/svg" xmlns:xlink="http://www.w3.org/1999/xlink" class="svg-icon">
    <!-- Generator: Sketch 3.6.1 (26313) - http://www.bohemiancoding.com/sketch -->
    <title>Instagram</title>
    <desc>Created with Sketch.</desc>
	<defs>
    <style type="text/css">
	<![CDATA[
		@import url(../css/svg.css);
		
		/*#Facebook {
			fill:#fff;
		}*/
		
	]]>
	</style>
    </defs>
	<svg style="display:none">
		<symbol id="main-shape" viewBox="0 0 48 48">
		<g id="Page-1" stroke="none" stroke-width="1" fill-rule="evenodd">
	        <path d="M42,43.5 L6,43.5 C5.172,43.5 4.5,42.828 4.5,42 L4.5,19.5 L10.5,19.5 C9.7185,20.625 9.4545,22.7235 9.4545,24.0555 C9.4545,32.088 16.005,38.6235 24.0555,38.6235 C32.1075,38.6235 38.658,32.088 38.658,24.0555 C38.658,22.7235 38.469,20.6565 37.5,19.5 L43.5,19.5 L43.5,42 C43.5,42.828 42.828,43.5 42,43.5 M24.0555,14.847 C29.154,14.847 33.2865,18.9705 33.2865,24.0555 C33.2865,29.142 29.154,33.2655 24.0555,33.2655 C18.9585,33.2655 14.826,29.142 14.826,24.0555 C14.826,18.9705 18.9585,14.847 24.0555,14.847 M36,6 L40.5,6 C41.328,6 42,6.672 42,7.5 L42,12 C42,12.828 41.328,13.5 40.5,13.5 L36,13.5 C35.172,13.5 34.5,12.828 34.5,12 L34.5,7.5 C34.5,6.672 35.172,6 36,6 M42.294,0 L5.706,0 C2.5545,0 0,2.5485 0,5.6925 L0,42.3075 C0,45.4515 2.5545,48 5.706,48 L42.294,48 C45.4455,48 48,45.4515 48,42.3075 L48,5.6925 C48,2.5485 45.4455,0 42.294,0" id="Instagram" fill="#AAAAAA"></path>
	    </g>
	</symbol>
	</svg>
	<svg viewBox="0 0 48 48" xmlns:xlink="http://www.w3.org/1999/xlink" class="home" id="icon-home">
		<a xlink:href="https://www.instagram.com/" target="_top">
			<rect x="0" y="0" width="100%" height="100%" fill-opacity="0"/> 
			<use class="use-home" xlink:href="#main-shape" x="0" y="0" />
		</a>
	</svg>
	<svg viewBox="0 0 48 48" xmlns:xlink="http://www.w3.org/1999/xlink" class="contact" id="icon-contact">
		<a xlink:href="https://www.instagram.com/" target="_top">
			<rect x="0" y="0" width="100%" height="100%" fill-opacity="0"/>
			<use class="use-contact" xlink:href="#main-shape" x="0" y="0" />
		</a>
	</svg>
</svg>