<svg width="48px" height="48px" viewBox="0 0 48 48" version="1.1" xmlns="http://www.w3.org/2000/svg" xmlns:xlink="http://www.w3.org/1999/xlink" class="svg-icon">
    <!-- Generator: Sketch 3.6.1 (26313) - http://www.bohemiancoding.com/sketch -->
    <title>Pinterest</title>
    <desc>Created with Sketch.</desc>
	<defs>
    <style type="text/css">
	<![CDATA[
		@import url(../css/svg.css);
		
		/*#Facebook {
			fill:#fff;
		}*/
		
	]]>
	</style>
    </defs>
	<svg style="display:none">
		<symbol id="main-shape" viewBox="0 0 48 48">
		<g id="Page-1" stroke="none" stroke-width="1" fill-rule="evenodd">
	        <path d="M24.0014112,0 C10.7475745,0 0,10.7447522 0,24.0014112 C0,33.8260716 5.91003704,42.2705945 14.3686717,45.9820074 C14.3009349,44.3083436 14.3573823,42.2931734 14.7835597,40.4699241 C15.2464279,38.5224907 17.8712295,27.3938966 17.8712295,27.3938966 C17.8712295,27.3938966 17.106368,25.8613512 17.106368,23.5949903 C17.106368,20.0388075 19.1695184,17.38296 21.7350503,17.38296 C23.9167402,17.38296 24.9723055,19.0227553 24.9723055,20.9871229 C24.9723055,23.1801023 23.5724114,26.4625154 22.8527077,29.502205 C22.2515435,32.0508026 24.1284177,34.1252425 26.6403246,34.1252425 C31.1871582,34.1252425 34.2494267,28.2857647 34.2494267,21.3653202 C34.2494267,16.10725 30.7073558,12.1700476 24.2638913,12.1700476 C16.9850062,12.1700476 12.449462,17.5974599 12.449462,23.6599047 C12.449462,25.7541013 13.064738,27.227377 14.0299877,28.3676133 C14.4759217,28.895396 14.5351914,29.1042512 14.3743165,29.7082378 C14.2614218,30.1457047 13.9961192,31.2125595 13.8860469,31.6330923 C13.725172,32.2399012 13.2340801,32.4600459 12.6865408,32.2342565 C9.33074616,30.8654084 7.76997707,27.1935086 7.76997707,23.0643853 C7.76997707,16.2483683 13.5191392,8.069148 24.9215029,8.069148 C34.0857294,8.069148 40.1171282,14.7045334 40.1171282,21.8197213 C40.1171282,31.2351385 34.8844593,38.2684777 27.1652849,38.2684777 C24.5771741,38.2684777 22.1386488,36.8685835 21.3032281,35.2795908 C21.3032281,35.2795908 19.9089787,40.8086082 19.6154525,41.875463 C19.1074264,43.7241136 18.1111307,45.5755865 17.1995061,47.0149938 C19.358617,47.6528488 21.6390898,48 24.0014112,48 C37.2552478,48 48,37.2552478 48,24.0014112 C48,10.7447522 37.2552478,0 24.0014112,0" id="Pinterest" fill="#AAAAAA"></path>
	    </g>
	</symbol>
	</svg>
	<svg viewBox="0 0 48 48" xmlns:xlink="http://www.w3.org/1999/xlink" class="home" id="icon-home">
		<a xlink:href="https://www.pinterest.com/anniehallid" target="_top">
			<rect x="0" y="0" width="100%" height="100%" fill-opacity="0"/> 
			<use class="use-home" xlink:href="#main-shape" x="0" y="0" />
		</a>
	</svg>
	<svg viewBox="0 0 48 48" xmlns:xlink="http://www.w3.org/1999/xlink" class="contact" id="icon-contact">
		<a xlink:href="https://www.pinterest.com/anniehallid" target="_top">
			<rect x="0" y="0" width="100%" height="100%" fill-opacity="0"/>
			<use class="use-contact" xlink:href="#main-shape" x="0" y="0" />
		</a>
	</svg>
</svg>